<?xml version="1.0" encoding="UTF-8" standalone="no"?>
<!-- Created with Inkscape (http://www.inkscape.org/) -->

<svg
   width="159.66078mm"
   height="119.36781mm"
   viewBox="0 0 159.66078 119.36781"
   version="1.1"
   id="svg5"
   xml:space="preserve"
   xmlns:xlink="http://www.w3.org/1999/xlink"
   xmlns="http://www.w3.org/2000/svg"
   xmlns:svg="http://www.w3.org/2000/svg"><defs
     id="defs2"><rect
       id="SVGID_1_"
       x="1.0089999"
       y="0.28"
       width="195.718"
       height="62.244999" /><rect
       id="SVGID_1_-0"
       x="1.0089999"
       y="0.28"
       width="195.718"
       height="62.244999" /><rect
       id="rect1416"
       x="1.0089999"
       y="0.28"
       width="195.718"
       height="62.244999" /><defs
       id="defs3759"><rect
         id="rect10809"
         x="1.0089999"
         y="0.28"
         width="195.718"
         height="62.244999" /></defs><clipPath
       id="SVGID_2_"><use
         xlink:href="#SVGID_1_-0"
         overflow="visible"
         id="use3763"
         style="overflow:visible"
         x="0"
         y="0"
         width="62.75"
         height="62.75" /></clipPath></defs><g
     id="layer1"
     transform="translate(-24.659291,-259.62502)"><path
       id="path4547"
       style="fill:#000000;fill-opacity:1;stroke:none;stroke-width:1.59751"
       d="M 24.659291,259.62502 V 378.99283 H 184.32008 V 259.62502 Z m 62.227451,20.19697 h 21.545978 c 3.26835,0.0923 6.051,0.58636 7.45628,0.94371 5.88627,1.50567 8.04208,3.27234 8.04208,3.27234 v 15.63526 l 16.12086,-0.007 c 0,0 4.3407,5.83825 4.3407,18.73094 -0.003,32.06503 -29.78459,37.3923 -29.78459,37.3923 l -10.72863,0.0237 -16.992678,-34.53444 z m 39.915198,0.62633 56.46126,0.0405 v 16.32122 h -17.76277 v 59.3 h -16.49866 v -59.30001 h -22.19983 z m -63.387574,0.2929 37.039754,74.91918 H 81.18173 l -4.51736,-9.45915 H 48.156902 l -4.661897,9.76047 H 25.318503 Z m 39.626124,15.53507 0.0436,43.59668 c 0,0 7.4689,0.81907 14.00558,-2.56572 5.69337,-2.94311 11.0289,-9.31907 11.02917,-19.19592 -2.9e-4,-10.45101 -6.01046,-16.93254 -12.16559,-19.54233 -5.51283,-2.33732 -12.91275,-2.29271 -12.91275,-2.29271 z m -40.834423,20.95099 -6.665534,14.11341 h 13.59108 z" /></g></svg>
